<svg width="140" height="30" viewBox="0 0 140 30" fill="none" xmlns="http://www.w3.org/2000/svg">
<path d="M11.2128 2.6C12.6728 2.6 13.8328 2.89 14.6928 3.47C15.5528 4.05 15.9828 4.94 15.9828 6.14C15.9828 7.12 15.7028 7.88 15.1428 8.42C14.6028 8.94 13.9728 9.2 13.2528 9.2C12.6728 9.2 12.1928 9.07 11.8128 8.81C11.9528 8.49 12.0628 8.12 12.1428 7.7C12.2228 7.28 12.2628 6.91 12.2628 6.59C12.2628 5.95 12.0728 5.44 11.6928 5.06C11.3328 4.68 10.8228 4.49 10.1628 4.49C9.36278 4.49 8.70278 4.76 8.18278 5.3C7.68278 5.84 7.43278 6.52 7.43278 7.34C7.43278 8.24 7.71278 9.02 8.27278 9.68C8.85278 10.32 9.70278 11.05 10.8228 11.87C11.6628 12.49 12.3428 13.05 12.8628 13.55C13.3828 14.03 13.8228 14.62 14.1828 15.32C14.5628 16 14.7528 16.78 14.7528 17.66C14.7528 18.86 14.4128 19.92 13.7328 20.84C13.0528 21.74 12.1428 22.44 11.0028 22.94C9.88278 23.42 8.67278 23.66 7.37278 23.66C5.81278 23.66 4.49278 23.32 3.41278 22.64C2.33278 21.96 1.79277 21 1.79277 19.76C1.79277 18.9 2.05277 18.24 2.57278 17.78C3.09278 17.3 3.72278 17.06 4.46278 17.06C5.06278 17.06 5.56278 17.19 5.96278 17.45C5.82278 17.77 5.71278 18.14 5.63278 18.56C5.55278 18.98 5.51278 19.34 5.51278 19.64C5.51278 20.3 5.74278 20.81 6.20278 21.17C6.66278 21.53 7.25278 21.71 7.97278 21.71C8.89278 21.71 9.68278 21.42 10.3428 20.84C11.0028 20.26 11.3328 19.51 11.3328 18.59C11.3328 18.01 11.1828 17.47 10.8828 16.97C10.6028 16.47 10.2528 16.04 9.83278 15.68C9.41278 15.3 8.82278 14.82 8.06278 14.24C7.16278 13.54 6.45278 12.96 5.93278 12.5C5.41278 12.02 4.96278 11.43 4.58278 10.73C4.22278 10.03 4.04277 9.23 4.04277 8.33C4.04277 7.17 4.35278 6.16 4.97278 5.3C5.61278 4.42 6.47278 3.75 7.55278 3.29C8.65278 2.83 9.87277 2.6 11.2128 2.6ZM25.1893 5.03C25.0293 5.89 24.8393 6.76 24.6193 7.64C24.3993 8.5 24.1893 9.19 23.9893 9.71C24.5293 8.83 25.2293 8.18 26.0893 7.76C26.9693 7.32 27.9093 7.1 28.9093 7.1C30.1693 7.1 31.0893 7.43 31.6693 8.09C32.2693 8.73 32.5693 9.68 32.5693 10.94C32.5693 11.74 32.4793 12.61 32.2993 13.55C32.1193 14.47 31.8393 15.68 31.4593 17.18C31.2593 17.96 31.0793 18.71 30.9193 19.43C30.7793 20.13 30.7093 20.67 30.7093 21.05C30.7093 21.39 30.7693 21.66 30.8893 21.86C31.0293 22.04 31.2693 22.15 31.6093 22.19C31.4893 22.65 31.2193 23 30.7993 23.24C30.3993 23.48 29.9293 23.6 29.3893 23.6C28.0493 23.6 27.3793 22.85 27.3793 21.35C27.3793 20.75 27.4593 20.03 27.6193 19.19C27.7993 18.35 28.0493 17.26 28.3693 15.92C28.6693 14.74 28.8893 13.81 29.0293 13.13C29.1693 12.45 29.2393 11.89 29.2393 11.45C29.2393 10.79 29.0693 10.29 28.7293 9.95C28.3893 9.59 27.9193 9.41 27.3193 9.41C26.2593 9.41 25.3893 9.93 24.7093 10.97C24.0493 11.99 23.5793 13.22 23.2993 14.66L21.6793 23L18.2893 23.36L22.4593 2L25.8493 1.64L25.1893 5.03ZM44.0604 7.1C46.0204 7.1 47.3504 7.61 48.0504 8.63C48.7504 9.65 49.1004 11.01 49.1004 12.71C49.1004 14.63 48.7904 16.42 48.1704 18.08C47.5504 19.72 46.5904 21.05 45.2904 22.07C43.9904 23.09 42.3804 23.6 40.4604 23.6C38.5204 23.6 37.2004 23.09 36.5004 22.07C35.8004 21.05 35.4504 19.69 35.4504 17.99C35.4504 16.07 35.7604 14.29 36.3804 12.65C37.0004 10.99 37.9504 9.65 39.2304 8.63C40.5304 7.61 42.1404 7.1 44.0604 7.1ZM43.4004 8.9C42.3604 8.9 41.5504 9.34 40.9704 10.22C40.3904 11.1 39.9304 12.27 39.5904 13.73C39.3904 14.51 39.2204 15.37 39.0804 16.31C38.9604 17.23 38.9004 18.02 38.9004 18.68C38.9004 20.76 39.6404 21.8 41.1204 21.8C42.1604 21.8 42.9704 21.36 43.5504 20.48C44.1504 19.6 44.6204 18.43 44.9604 16.97C45.1604 16.19 45.3204 15.34 45.4404 14.42C45.5804 13.48 45.6504 12.68 45.6504 12.02C45.6504 9.94 44.9004 8.9 43.4004 8.9ZM57.0141 10.04C57.5741 9.14 58.3041 8.43 59.2041 7.91C60.1041 7.37 61.0741 7.1 62.1141 7.1C63.4941 7.1 64.4741 7.58 65.0541 8.54C65.6541 9.48 65.9541 10.82 65.9541 12.56C65.9541 14.42 65.6441 16.19 65.0241 17.87C64.4241 19.55 63.4941 20.93 62.2341 22.01C60.9941 23.07 59.4641 23.6 57.6441 23.6C56.7841 23.6 55.8941 23.43 54.9741 23.09L53.9241 28.4L50.5641 28.76L54.5841 7.7L57.4041 7.34L57.0141 10.04ZM55.4241 20.87C55.7841 21.17 56.1941 21.4 56.6541 21.56C57.1141 21.72 57.5541 21.8 57.9741 21.8C59.0341 21.8 59.8541 21.35 60.4341 20.45C61.0141 19.55 61.4741 18.39 61.8141 16.97C62.0141 16.19 62.1741 15.34 62.2941 14.42C62.4341 13.5 62.5041 12.72 62.5041 12.08C62.5041 11.2 62.3441 10.54 62.0241 10.1C61.7241 9.64 61.2241 9.41 60.5241 9.41C59.5241 9.41 58.7041 9.83 58.0641 10.67C57.4241 11.49 56.9841 12.51 56.7441 13.73L55.4241 20.87ZM77.3616 2.6C78.8216 2.6 79.9816 2.89 80.8416 3.47C81.7016 4.05 82.1316 4.94 82.1316 6.14C82.1316 7.12 81.8516 7.88 81.2916 8.42C80.7516 8.94 80.1216 9.2 79.4016 9.2C78.8216 9.2 78.3416 9.07 77.9616 8.81C78.1016 8.49 78.2116 8.12 78.2916 7.7C78.3716 7.28 78.4116 6.91 78.4116 6.59C78.4116 5.95 78.2216 5.44 77.8416 5.06C77.4816 4.68 76.9716 4.49 76.3116 4.49C75.5116 4.49 74.8516 4.76 74.3316 5.3C73.8316 5.84 73.5816 6.52 73.5816 7.34C73.5816 8.24 73.8616 9.02 74.4216 9.68C75.0016 10.32 75.8516 11.05 76.9716 11.87C77.8116 12.49 78.4916 13.05 79.0116 13.55C79.5316 14.03 79.9716 14.62 80.3316 15.32C80.7116 16 80.9016 16.78 80.9016 17.66C80.9016 18.86 80.5616 19.92 79.8816 20.84C79.2016 21.74 78.2916 22.44 77.1516 22.94C76.0316 23.42 74.8216 23.66 73.5216 23.66C71.9616 23.66 70.6416 23.32 69.5616 22.64C68.4816 21.96 67.9416 21 67.9416 19.76C67.9416 18.9 68.2016 18.24 68.7216 17.78C69.2416 17.3 69.8716 17.06 70.6116 17.06C71.2116 17.06 71.7116 17.19 72.1116 17.45C71.9716 17.77 71.8616 18.14 71.7816 18.56C71.7016 18.98 71.6616 19.34 71.6616 19.64C71.6616 20.3 71.8916 20.81 72.3516 21.17C72.8116 21.53 73.4016 21.71 74.1216 21.71C75.0416 21.71 75.8316 21.42 76.4916 20.84C77.1516 20.26 77.4816 19.51 77.4816 18.59C77.4816 18.01 77.3316 17.47 77.0316 16.97C76.7516 16.47 76.4016 16.04 75.9816 15.68C75.5616 15.3 74.9716 14.82 74.2116 14.24C73.3116 13.54 72.6016 12.96 72.0816 12.5C71.5616 12.02 71.1116 11.43 70.7316 10.73C70.3716 10.03 70.1916 9.23 70.1916 8.33C70.1916 7.17 70.5016 6.16 71.1216 5.3C71.7616 4.42 72.6216 3.75 73.7016 3.29C74.8016 2.83 76.0216 2.6 77.3616 2.6ZM91.4281 7.7H93.7681L93.4981 9.05H91.1281L88.9681 19.88C88.8681 20.42 88.8181 20.84 88.8181 21.14C88.8181 21.78 89.1181 22.13 89.7181 22.19C89.5981 22.65 89.3281 23 88.9081 23.24C88.4881 23.48 88.0181 23.6 87.4981 23.6C86.8581 23.6 86.3581 23.42 85.9981 23.06C85.6581 22.7 85.4881 22.19 85.4881 21.53C85.4881 20.63 85.8781 18.38 86.6581 14.78L86.9581 13.34L87.7981 9.05H85.6681L85.7881 8.15C86.7681 7.79 87.7181 7.31 88.6381 6.71C89.5581 6.11 90.3681 5.45 91.0681 4.73H92.0281L91.4281 7.7ZM106.303 19.88C106.203 20.48 106.153 20.9 106.153 21.14C106.153 21.78 106.453 22.13 107.053 22.19C106.933 22.65 106.663 23 106.243 23.24C105.843 23.48 105.383 23.6 104.863 23.6C104.303 23.6 103.833 23.45 103.453 23.15C103.093 22.85 102.883 22.43 102.823 21.89C102.423 22.47 101.853 22.9 101.113 23.18C100.373 23.46 99.5829 23.6 98.7429 23.6C97.2029 23.6 96.0829 23.13 95.3829 22.19C94.7029 21.23 94.3629 19.83 94.3629 17.99C94.3629 16.19 94.6629 14.46 95.2629 12.8C95.8629 11.14 96.7829 9.78 98.0229 8.72C99.2829 7.64 100.833 7.1 102.673 7.1C103.213 7.1 103.703 7.15 104.143 7.25C104.603 7.35 105.123 7.51 105.703 7.73L108.703 7.34L106.303 19.88ZM104.893 9.83C104.533 9.53 104.113 9.3 103.633 9.14C103.173 8.98 102.733 8.9 102.313 8.9C101.273 8.9 100.463 9.35 99.8829 10.25C99.3029 11.15 98.8429 12.31 98.5029 13.73C98.3029 14.51 98.1329 15.37 97.9929 16.31C97.8729 17.23 97.8129 18.01 97.8129 18.65C97.8129 19.61 97.9829 20.38 98.3229 20.96C98.6629 21.52 99.2029 21.8 99.9429 21.8C100.963 21.8 101.763 21.33 102.343 20.39C102.923 19.43 103.333 18.29 103.573 16.97L104.893 9.83ZM119.572 7.1C120.852 7.1 121.872 7.37 122.632 7.91C123.412 8.45 123.802 9.23 123.802 10.25C123.802 11.09 123.552 11.74 123.052 12.2C122.572 12.64 121.992 12.86 121.312 12.86C120.732 12.86 120.312 12.72 120.052 12.44C120.172 12.14 120.272 11.8 120.352 11.42C120.432 11.02 120.472 10.68 120.472 10.4C120.472 9.92 120.352 9.55 120.112 9.29C119.872 9.01 119.512 8.87 119.032 8.87C118.132 8.87 117.342 9.36 116.662 10.34C115.982 11.3 115.462 12.47 115.102 13.85C114.762 15.21 114.592 16.44 114.592 17.54C114.592 19.92 115.502 21.11 117.322 21.11C118.182 21.11 118.932 20.85 119.572 20.33C120.212 19.79 120.682 19.09 120.982 18.23C121.662 18.43 122.002 18.94 122.002 19.76C122.002 20.46 121.752 21.1 121.252 21.68C120.772 22.26 120.092 22.72 119.212 23.06C118.352 23.42 117.392 23.6 116.332 23.6C112.872 23.6 111.142 21.62 111.142 17.66C111.142 15.88 111.462 14.18 112.102 12.56C112.762 10.94 113.722 9.63 114.982 8.63C116.262 7.61 117.792 7.1 119.572 7.1ZM131.435 5.03C131.275 5.89 131.085 6.76 130.865 7.64C130.645 8.5 130.435 9.19 130.235 9.71C130.755 8.85 131.435 8.2 132.275 7.76C133.115 7.32 134.015 7.1 134.975 7.1C136.135 7.1 137.015 7.41 137.615 8.03C138.215 8.65 138.515 9.5 138.515 10.58C138.515 12 138.045 13.17 137.105 14.09C136.165 14.99 134.965 15.7 133.505 16.22L134.885 19.79C135.105 20.37 135.405 20.86 135.785 21.26C136.165 21.66 136.625 21.89 137.165 21.95C137.085 22.45 136.865 22.85 136.505 23.15C136.145 23.45 135.665 23.6 135.065 23.6C134.285 23.6 133.625 23.34 133.085 22.82C132.565 22.28 132.095 21.48 131.675 20.42C131.255 19.34 130.755 17.79 130.175 15.77C131.575 15.43 132.755 14.88 133.715 14.12C134.695 13.36 135.185 12.42 135.185 11.3C135.185 10.68 135.025 10.21 134.705 9.89C134.385 9.57 133.925 9.41 133.325 9.41C132.245 9.41 131.425 9.89 130.865 10.85C130.305 11.81 129.865 13.08 129.545 14.66L127.925 23L124.535 23.36L128.705 2L132.095 1.64L131.435 5.03Z" fill="#180A0A"/>
<path d="M14.6928 3.47L15.2519 2.64093L15.2519 2.64093L14.6928 3.47ZM15.1428 8.42L15.8364 9.14032L15.8369 9.13984L15.1428 8.42ZM11.8128 8.81L10.8966 8.40918L10.5647 9.16775L11.2481 9.63531L11.8128 8.81ZM12.1428 7.7L11.1604 7.51289L11.1604 7.51289L12.1428 7.7ZM11.6928 5.06L10.9668 5.74774L10.9761 5.75755L10.9857 5.76711L11.6928 5.06ZM8.18278 5.3L7.46245 4.60636L7.45566 4.61341L7.44901 4.62059L8.18278 5.3ZM8.27278 9.68L7.51027 10.327L7.52083 10.3394L7.53179 10.3515L8.27278 9.68ZM10.8228 11.87L11.4166 11.0654L11.4135 11.0631L10.8228 11.87ZM12.8628 13.55L12.1697 14.2708L12.177 14.2779L12.1845 14.2848L12.8628 13.55ZM14.1828 15.32L13.2935 15.7773L13.3014 15.7927L13.3098 15.8078L14.1828 15.32ZM13.7328 20.84L14.5307 21.4429L14.537 21.4344L13.7328 20.84ZM11.0028 22.94L11.3967 23.8592L11.4044 23.8558L11.0028 22.94ZM3.41278 22.64L2.87996 23.4862L2.87996 23.4862L3.41278 22.64ZM2.57278 17.78L3.23535 18.529L3.24328 18.522L3.25106 18.5148L2.57278 17.78ZM5.96278 17.45L6.87893 17.8508L7.21888 17.0738L6.50776 16.6116L5.96278 17.45ZM5.63278 18.56L6.61511 18.7471L6.61511 18.7471L5.63278 18.56ZM6.20278 21.17L6.81908 20.3825L6.81908 20.3825L6.20278 21.17ZM10.3428 20.84L9.68266 20.0888L9.68266 20.0888L10.3428 20.84ZM10.8828 16.97L10.0103 17.4586L10.0176 17.4717L10.0253 17.4845L10.8828 16.97ZM9.83278 15.68L9.16186 16.4215L9.1718 16.4305L9.18198 16.4393L9.83278 15.68ZM8.06278 14.24L7.44881 15.0294L7.4561 15.035L8.06278 14.24ZM5.93278 12.5L5.25449 13.2348L5.26227 13.242L5.2702 13.249L5.93278 12.5ZM4.58278 10.73L3.69349 11.1873L3.69859 11.1973L3.70392 11.2071L4.58278 10.73ZM4.97278 5.3L4.16403 4.71182L4.1616 4.7152L4.97278 5.3ZM7.55278 3.29L7.16696 2.3674L7.16091 2.36998L7.55278 3.29ZM11.2128 3.6C12.5517 3.6 13.4935 3.86736 14.1336 4.29907L15.2519 2.64093C14.172 1.91264 12.7939 1.6 11.2128 1.6V3.6ZM14.1336 4.29907C14.6714 4.66174 14.9828 5.21199 14.9828 6.14H16.9828C16.9828 4.66801 16.4342 3.43826 15.2519 2.64093L14.1336 4.29907ZM14.9828 6.14C14.9828 6.9232 14.7652 7.39486 14.4486 7.70015L15.8369 9.13984C16.6403 8.36514 16.9828 7.3168 16.9828 6.14H14.9828ZM14.4491 7.69968C14.087 8.04844 13.7025 8.2 13.2528 8.2V10.2C14.243 10.2 15.1186 9.83156 15.8364 9.14032L14.4491 7.69968ZM13.2528 8.2C12.8219 8.2 12.5526 8.1045 12.3775 7.98469L11.2481 9.63531C11.833 10.0355 12.5237 10.2 13.2528 10.2V8.2ZM12.7289 9.21082C12.9047 8.80904 13.0341 8.3649 13.1251 7.88711L11.1604 7.51289C11.0914 7.8751 11.0008 8.17095 10.8966 8.40918L12.7289 9.21082ZM13.1251 7.88711C13.2132 7.42458 13.2628 6.98966 13.2628 6.59H11.2628C11.2628 6.83033 11.2323 7.13542 11.1604 7.51289L13.1251 7.88711ZM13.2628 6.59C13.2628 5.73911 13.0026 4.95563 12.3999 4.35289L10.9857 5.76711C11.1429 5.92436 11.2628 6.16089 11.2628 6.59H13.2628ZM12.4187 4.37225C11.8233 3.74369 11.0213 3.49 10.1628 3.49V5.49C10.6243 5.49 10.8423 5.6163 10.9668 5.74774L12.4187 4.37225ZM10.1628 3.49C9.11135 3.49 8.18462 3.85642 7.46245 4.60636L8.9031 5.99364C9.22093 5.66358 9.6142 5.49 10.1628 5.49V3.49ZM7.44901 4.62059C6.75782 5.36708 6.43278 6.29921 6.43278 7.34H8.43278C8.43278 6.74079 8.60773 6.31292 8.91654 5.97941L7.44901 4.62059ZM6.43278 7.34C6.43278 8.46672 6.79043 9.47859 7.51027 10.327L9.03528 9.03302C8.63512 8.5614 8.43278 8.01328 8.43278 7.34H6.43278ZM7.53179 10.3515C8.17598 11.0624 9.08607 11.8379 10.232 12.6769L11.4135 11.0631C10.3195 10.2621 9.52957 9.57764 9.01376 9.00848L7.53179 10.3515ZM10.2289 12.6746C11.048 13.2791 11.6913 13.8109 12.1697 14.2708L13.5559 12.8292C12.9942 12.2891 12.2775 11.7009 11.4166 11.0654L10.2289 12.6746ZM12.1845 14.2848C12.6093 14.677 12.9811 15.1698 13.2935 15.7773L15.0721 14.8627C14.6645 14.0702 14.1562 13.383 13.5411 12.8152L12.1845 14.2848ZM13.3098 15.8078C13.5962 16.3202 13.7528 16.9283 13.7528 17.66H15.7528C15.7528 16.6317 15.5294 15.6798 15.0557 14.8322L13.3098 15.8078ZM13.7528 17.66C13.7528 18.6572 13.4749 19.5065 12.9286 20.2456L14.537 21.4344C15.3506 20.3335 15.7528 19.0628 15.7528 17.66H13.7528ZM12.9349 20.2372C12.3684 20.9869 11.6011 21.5856 10.6011 22.0242L11.4044 23.8558C12.6845 23.2944 13.7371 22.4931 14.5306 21.4428L12.9349 20.2372ZM10.6089 22.0209C9.62151 22.444 8.54653 22.66 7.37278 22.66V24.66C8.79902 24.66 10.144 24.396 11.3967 23.8591L10.6089 22.0209ZM7.37278 22.66C5.95927 22.66 4.83383 22.353 3.94559 21.7938L2.87996 23.4862C4.15172 24.287 5.66628 24.66 7.37278 24.66V22.66ZM3.94559 21.7938C3.14604 21.2903 2.79277 20.6444 2.79277 19.76H0.792775C0.792775 21.3556 1.51951 22.6297 2.87996 23.4862L3.94559 21.7938ZM2.79277 19.76C2.79277 19.1126 2.97967 18.7552 3.23535 18.529L1.9102 17.031C1.12588 17.7248 0.792775 18.6874 0.792775 19.76H2.79277ZM3.25106 18.5148C3.57725 18.2137 3.96153 18.06 4.46278 18.06V16.06C3.48402 16.06 2.6083 16.3863 1.89449 17.0452L3.25106 18.5148ZM4.46278 18.06C4.91902 18.06 5.21717 18.158 5.41779 18.2884L6.50776 16.6116C5.90838 16.222 5.20654 16.06 4.46278 16.06V18.06ZM5.04662 17.0492C4.87084 17.451 4.74144 17.8951 4.65044 18.3729L6.61511 18.7471C6.68411 18.3849 6.77471 18.089 6.87893 17.8508L5.04662 17.0492ZM4.65044 18.3729C4.5632 18.8309 4.51278 19.257 4.51278 19.64H6.51278C6.51278 19.423 6.54235 19.1291 6.61511 18.7471L4.65044 18.3729ZM4.51278 19.64C4.51278 20.5621 4.85065 21.3816 5.58647 21.9575L6.81908 20.3825C6.6349 20.2384 6.51278 20.0379 6.51278 19.64H4.51278ZM5.58647 21.9575C6.2602 22.4848 7.08264 22.71 7.97278 22.71V20.71C7.42291 20.71 7.06535 20.5752 6.81908 20.3825L5.58647 21.9575ZM7.97278 22.71C9.12324 22.71 10.1512 22.3396 11.0029 21.5912L9.68266 20.0888C9.21434 20.5004 8.66231 20.71 7.97278 20.71V22.71ZM11.0029 21.5912C11.8902 20.8114 12.3328 19.7822 12.3328 18.59H10.3328C10.3328 19.2378 10.1153 19.7086 9.68266 20.0888L11.0029 21.5912ZM12.3328 18.59C12.3328 17.8277 12.133 17.11 11.7403 16.4555L10.0253 17.4845C10.2326 17.83 10.3328 18.1923 10.3328 18.59H12.3328ZM11.7553 16.4814C11.42 15.8826 10.996 15.36 10.4836 14.9207L9.18198 16.4393C9.50955 16.72 9.7856 17.0574 10.0103 17.4586L11.7553 16.4814ZM10.5037 14.9385C10.0538 14.5314 9.43879 14.0322 8.66945 13.445L7.4561 15.035C8.20676 15.6078 8.77176 16.0686 9.16186 16.4215L10.5037 14.9385ZM8.67672 13.4506C7.78427 12.7565 7.09282 12.1911 6.59535 11.751L5.2702 13.249C5.81273 13.7289 6.54128 14.3235 7.44883 15.0294L8.67672 13.4506ZM6.61106 11.7652C6.181 11.3682 5.79583 10.8685 5.46163 10.2529L3.70392 11.2071C4.12972 11.9915 4.64455 12.6718 5.25449 13.2348L6.61106 11.7652ZM5.47206 10.2727C5.19464 9.73321 5.04277 9.09387 5.04277 8.33H3.04277C3.04277 9.36613 3.25091 10.3268 3.69349 11.1873L5.47206 10.2727ZM5.04277 8.33C5.04277 7.35913 5.29834 6.55839 5.78395 5.8848L4.1616 4.7152C3.40721 5.76161 3.04277 6.98087 3.04277 8.33H5.04277ZM5.78151 5.88817C6.30676 5.16596 7.01746 4.60493 7.94464 4.21002L7.16091 2.36998C5.92809 2.89507 4.91879 3.67404 4.16404 4.71183L5.78151 5.88817ZM7.93858 4.21258C8.90212 3.80964 9.98886 3.6 11.2128 3.6V1.6C9.75669 1.6 8.40343 1.85035 7.16697 2.36742L7.93858 4.21258ZM25.1893 5.03L24.2077 4.83889L24.2061 4.84709L25.1893 5.03ZM24.6193 7.64L25.5881 7.88784L25.5894 7.88253L24.6193 7.64ZM23.9893 9.71L23.0559 9.35102L24.8416 10.233L23.9893 9.71ZM26.0893 7.76L26.5281 8.65861L26.5365 8.65443L26.0893 7.76ZM31.6693 8.09L30.9181 8.75011L30.9287 8.7622L30.9397 8.77394L31.6693 8.09ZM32.2993 13.55L33.2807 13.742L33.2814 13.7381L32.2993 13.55ZM31.4593 17.18L32.4279 17.4284L32.4286 17.4256L31.4593 17.18ZM30.9193 19.43L29.9431 19.2131L29.9408 19.2235L29.9387 19.2339L30.9193 19.43ZM30.8893 21.86L30.0318 22.3745L30.0628 22.4263L30.0999 22.4739L30.8893 21.86ZM31.6093 22.19L32.5769 22.4424L32.8668 21.331L31.7261 21.1968L31.6093 22.19ZM30.7993 23.24L30.3031 22.3718L30.2939 22.377L30.2848 22.3825L30.7993 23.24ZM27.6193 19.19L26.6415 18.9805L26.6391 18.9917L26.6369 19.0029L27.6193 19.19ZM28.3693 15.92L27.4001 15.6736L27.3983 15.6807L27.3966 15.6877L28.3693 15.92ZM29.0293 13.13L28.0498 12.9283L28.0498 12.9283L29.0293 13.13ZM28.7293 9.95L28.0022 10.6366L28.0121 10.647L28.0222 10.6571L28.7293 9.95ZM24.7093 10.97L23.8723 10.4227L23.8697 10.4267L24.7093 10.97ZM23.2993 14.66L22.3176 14.4691L22.3176 14.4693L23.2993 14.66ZM21.6793 23L21.7849 23.9944L22.52 23.9163L22.6609 23.1907L21.6793 23ZM18.2893 23.36L17.3078 23.1684L17.0483 24.4974L18.3949 24.3544L18.2893 23.36ZM22.4593 2L22.3537 1.00559L21.6193 1.08358L21.4778 1.80839L22.4593 2ZM25.8493 1.64L26.8308 1.8311L27.0895 0.502674L25.7437 0.645591L25.8493 1.64ZM24.2061 4.84709C24.05 5.68637 23.8644 6.53648 23.6491 7.39746L25.5894 7.88253C25.8142 6.98352 26.0085 6.09363 26.1724 5.21291L24.2061 4.84709ZM23.6505 7.39217C23.4352 8.23373 23.2363 8.8821 23.0559 9.35102L24.9226 10.069C25.1423 9.49789 25.3633 8.76627 25.5881 7.88783L23.6505 7.39217ZM24.8416 10.233C25.2904 9.50164 25.8523 8.98861 26.5281 8.65857L25.6504 6.86143C24.6062 7.37139 23.7681 8.15836 23.1369 9.18698L24.8416 10.233ZM26.5365 8.65443C27.2753 8.28503 28.0619 8.1 28.9093 8.1V6.1C27.7567 6.1 26.6632 6.35497 25.642 6.86557L26.5365 8.65443ZM28.9093 8.1C30.0098 8.1 30.5987 8.3867 30.9181 8.75011L32.4204 7.42989C31.5798 6.4733 30.3287 6.1 28.9093 6.1V8.1ZM30.9397 8.77394C31.3029 9.16131 31.5693 9.82372 31.5693 10.94H33.5693C33.5693 9.53628 33.2356 8.29868 32.3988 7.40606L30.9397 8.77394ZM31.5693 10.94C31.5693 11.666 31.4875 12.4723 31.3171 13.3619L33.2814 13.7381C33.4711 12.7477 33.5693 11.814 33.5693 10.94H31.5693ZM31.3179 13.358C31.1429 14.2523 30.8679 15.4424 30.4899 16.9344L32.4286 17.4256C32.8107 15.9176 33.0956 14.6877 33.2807 13.742L31.3179 13.358ZM30.4906 16.9316C30.2882 17.7211 30.1056 18.4816 29.9431 19.2131L31.8954 19.6469C32.0529 18.9384 32.2304 18.1989 32.4279 17.4284L30.4906 16.9316ZM29.9387 19.2339C29.7949 19.9527 29.7093 20.5698 29.7093 21.05H31.7093C31.7093 20.7702 31.7636 20.3073 31.8998 19.6261L29.9387 19.2339ZM29.7093 21.05C29.7093 21.4933 29.7853 21.9636 30.0318 22.3745L31.7468 21.3455C31.7533 21.3564 31.7093 21.2867 31.7093 21.05H29.7093ZM30.0999 22.4739C30.471 22.9511 31.0185 23.1274 31.4924 23.1832L31.7261 21.1968C31.6799 21.1914 31.6463 21.1847 31.6234 21.1787C31.6005 21.1728 31.5908 21.1684 31.5909 21.1684C31.5914 21.1686 31.6025 21.1738 31.6197 21.1869C31.6373 21.2004 31.6583 21.2199 31.6786 21.2461L30.0999 22.4739ZM30.6416 21.9376C30.5909 22.1321 30.4941 22.2626 30.3031 22.3718L31.2954 24.1082C31.9444 23.7374 32.3876 23.1679 32.5769 22.4424L30.6416 21.9376ZM30.2848 22.3825C30.0633 22.5154 29.777 22.6 29.3893 22.6V24.6C30.0815 24.6 30.7352 24.4446 31.3138 24.0975L30.2848 22.3825ZM29.3893 22.6C28.9044 22.6 28.7153 22.4695 28.6275 22.3713C28.5206 22.2516 28.3793 21.9719 28.3793 21.35H26.3793C26.3793 22.2281 26.5729 23.0734 27.136 23.7037C27.7183 24.3555 28.5341 24.6 29.3893 24.6V22.6ZM28.3793 21.35C28.3793 20.833 28.4488 20.1791 28.6016 19.3771L26.6369 19.0029C26.4697 19.8809 26.3793 20.667 26.3793 21.35H28.3793ZM28.5971 19.3995C28.7748 18.5702 29.0228 17.4886 29.3419 16.1523L27.3966 15.6877C27.0757 17.0314 26.8238 18.1298 26.6415 18.9805L28.5971 19.3995ZM29.3384 16.1664C29.6399 14.9808 29.8642 14.0337 30.0087 13.3317L28.0498 12.9283C27.9143 13.5863 27.6987 14.4992 27.4001 15.6736L29.3384 16.1664ZM30.0087 13.3317C30.1555 12.6186 30.2393 11.9849 30.2393 11.45H28.2393C28.2393 11.7951 28.183 12.2814 28.0498 12.9283L30.0087 13.3317ZM30.2393 11.45C30.2393 10.6258 30.025 9.83148 29.4364 9.24289L28.0222 10.6571C28.1136 10.7485 28.2393 10.9542 28.2393 11.45H30.2393ZM29.4563 9.26337C28.8882 8.66192 28.1317 8.41 27.3193 8.41V10.41C27.7068 10.41 27.8903 10.5181 28.0022 10.6366L29.4563 9.26337ZM27.3193 8.41C25.8594 8.41 24.7 9.15678 23.8723 10.4227L25.5462 11.5172C26.0785 10.7032 26.6592 10.41 27.3193 10.41V8.41ZM23.8697 10.4267C23.1275 11.5738 22.6171 12.929 22.3176 14.4691L24.2809 14.8509C24.5414 13.5109 24.971 12.4062 25.5488 11.5133L23.8697 10.4267ZM22.3176 14.4693L20.6976 22.8093L22.6609 23.1907L24.2809 14.8507L22.3176 14.4693ZM21.5737 22.0056L18.1837 22.3656L18.3949 24.3544L21.7849 23.9944L21.5737 22.0056ZM19.2707 23.5516L23.4407 2.19161L21.4778 1.80839L17.3078 23.1684L19.2707 23.5516ZM22.5649 2.99441L25.9549 2.63441L25.7437 0.645591L22.3537 1.00559L22.5649 2.99441ZM24.8677 1.4489L24.2077 4.8389L26.1708 5.2211L26.8308 1.8311L24.8677 1.4489ZM48.0504 8.63L47.2259 9.19584L48.0504 8.63ZM48.1704 18.08L49.1058 18.4336L49.1072 18.4299L48.1704 18.08ZM45.2904 22.07L44.6731 21.2833L44.6731 21.2833L45.2904 22.07ZM36.5004 22.07L37.3249 21.5042L37.3249 21.5042L36.5004 22.07ZM36.3804 12.65L37.3158 13.0036L37.3172 12.9999L36.3804 12.65ZM39.2304 8.63L38.6131 7.84324L38.6072 7.84794L39.2304 8.63ZM39.5904 13.73L40.5591 13.9784L40.5619 13.9676L40.5644 13.9568L39.5904 13.73ZM39.0804 16.31L38.0913 16.1627L38.09 16.1717L38.0888 16.1807L39.0804 16.31ZM43.5504 20.48L42.7242 19.9167L42.7198 19.9231L42.7155 19.9297L43.5504 20.48ZM44.9604 16.97L43.9918 16.7216L43.989 16.7324L43.9865 16.7432L44.9604 16.97ZM45.4404 14.42L44.4513 14.2727L44.45 14.2817L44.4488 14.2907L45.4404 14.42ZM44.0604 8.1C45.8891 8.1 46.8019 8.57794 47.2259 9.19584L48.8749 8.06416C47.899 6.64206 46.1518 6.1 44.0604 6.1V8.1ZM47.2259 9.19584C47.7761 9.99751 48.1004 11.1385 48.1004 12.71H50.1004C50.1004 10.8815 49.7248 9.30248 48.8749 8.06416L47.2259 9.19584ZM48.1004 12.71C48.1004 14.5205 47.8085 16.191 47.2336 17.7301L49.1072 18.4299C49.7724 16.649 50.1004 14.7395 50.1004 12.71H48.1004ZM47.235 17.7264C46.6755 19.2065 45.8207 20.3829 44.6731 21.2833L45.9077 22.8567C47.3601 21.7171 48.4254 20.2335 49.1058 18.4336L47.235 17.7264ZM44.6731 21.2833C43.5769 22.1434 42.1945 22.6 40.4604 22.6V24.6C42.5664 24.6 44.404 24.0366 45.9077 22.8567L44.6731 21.2833ZM40.4604 22.6C38.6564 22.6 37.7507 22.1245 37.3249 21.5042L35.6759 22.6358C36.6502 24.0555 38.3844 24.6 40.4604 24.6V22.6ZM37.3249 21.5042C36.7748 20.7025 36.4504 19.5615 36.4504 17.99H34.4504C34.4504 19.8185 34.8261 21.3975 35.6759 22.6358L37.3249 21.5042ZM36.4504 17.99C36.4504 16.1793 36.7424 14.5203 37.3158 13.0036L35.445 12.2964C34.7784 14.0597 34.4504 15.9607 34.4504 17.99H36.4504ZM37.3172 12.9999C37.8792 11.4952 38.7271 10.3098 39.8536 9.41206L38.6072 7.84794C37.1738 8.9902 36.1216 10.4848 35.4436 12.3001L37.3172 12.9999ZM39.8477 9.41674C40.944 8.55659 42.3264 8.1 44.0604 8.1V6.1C41.9545 6.1 40.1169 6.66341 38.6131 7.84326L39.8477 9.41674ZM43.4004 7.9C42.0188 7.9 40.8975 8.51351 40.1355 9.66969L41.8054 10.7703C42.2034 10.1665 42.7021 9.9 43.4004 9.9V7.9ZM40.1355 9.66969C39.4692 10.6806 38.9729 11.9727 38.6165 13.5032L40.5644 13.9568C40.888 12.5673 41.3117 11.5194 41.8054 10.7703L40.1355 9.66969ZM38.6218 13.4816C38.4119 14.3002 38.2355 15.1945 38.0913 16.1627L40.0695 16.4573C40.2053 15.5455 40.369 14.7198 40.5591 13.9784L38.6218 13.4816ZM38.0888 16.1807C37.9653 17.1278 37.9004 17.9634 37.9004 18.68H39.9004C39.9004 18.0766 39.9556 17.3322 40.072 16.4393L38.0888 16.1807ZM37.9004 18.68C37.9004 19.8083 38.0957 20.8339 38.6406 21.5998C39.2301 22.4282 40.1161 22.8 41.1204 22.8V20.8C40.6448 20.8 40.4207 20.6518 40.2702 20.4402C40.0752 20.1661 39.9004 19.6317 39.9004 18.68H37.9004ZM41.1204 22.8C42.5021 22.8 43.6234 22.1865 44.3854 21.0303L42.7155 19.9297C42.3175 20.5335 41.8188 20.8 41.1204 20.8V22.8ZM44.3767 21.0433C45.0684 20.0288 45.5769 18.7318 45.9344 17.1968L43.9865 16.7432C43.664 18.1282 43.2325 19.1712 42.7242 19.9167L44.3767 21.0433ZM45.9291 17.2184C46.1405 16.3938 46.3076 15.5036 46.432 14.5493L44.4488 14.2907C44.3333 15.1764 44.1803 15.9862 43.9918 16.7216L45.9291 17.2184ZM46.4295 14.5673C46.5739 13.5978 46.6504 12.7455 46.6504 12.02H44.6504C44.6504 12.6145 44.5869 13.3622 44.4513 14.2727L46.4295 14.5673ZM46.6504 12.02C46.6504 10.8898 46.452 9.86193 45.899 9.09508C45.3024 8.26771 44.4095 7.9 43.4004 7.9V9.9C43.8914 9.9 44.1235 10.0523 44.2768 10.2649C44.4738 10.5381 44.6504 11.0702 44.6504 12.02H46.6504ZM57.0141 10.04L56.0244 9.89704L57.8632 10.5683L57.0141 10.04ZM59.2041 7.91L59.7044 8.77586L59.7115 8.77174L59.7186 8.76749L59.2041 7.91ZM65.0541 8.54L64.1982 9.05712L64.2046 9.06765L64.2112 9.07803L65.0541 8.54ZM65.0241 17.87L64.0859 17.5238L64.0824 17.5337L65.0241 17.87ZM62.2341 22.01L62.8839 22.7701L62.8849 22.7693L62.2341 22.01ZM54.9741 23.09L55.3208 22.152L54.2206 21.7454L53.9931 22.896L54.9741 23.09ZM53.9241 28.4L54.0306 29.3943L54.7624 29.3159L54.9051 28.594L53.9241 28.4ZM50.5641 28.76L49.5818 28.5725L49.3288 29.8981L50.6706 29.7543L50.5641 28.76ZM54.5841 7.7L54.4575 6.70805L53.7379 6.79991L53.6018 7.5125L54.5841 7.7ZM57.4041 7.34L58.3938 7.48296L58.5818 6.18154L57.2775 6.34805L57.4041 7.34ZM55.4241 20.87L54.4408 20.6882L54.3344 21.2636L54.7839 21.6382L55.4241 20.87ZM56.6541 21.56L56.3256 22.5045L56.3256 22.5045L56.6541 21.56ZM60.4341 20.45L59.5935 19.9083L59.5935 19.9083L60.4341 20.45ZM61.8141 16.97L60.8454 16.7216L60.8435 16.7294L60.8416 16.7371L61.8141 16.97ZM62.2941 14.42L61.3055 14.2696L61.3039 14.2801L61.3025 14.2907L62.2941 14.42ZM62.0241 10.1L61.1865 10.6463L61.2004 10.6676L61.2154 10.6882L62.0241 10.1ZM58.0641 10.67L58.8525 11.2853L58.8595 11.276L58.0641 10.67ZM56.7441 13.73L55.7628 13.537L55.7608 13.5482L56.7441 13.73ZM57.8632 10.5683C58.3382 9.80488 58.9495 9.21202 59.7044 8.77586L58.7038 7.04413C57.6587 7.64798 56.81 8.47512 56.165 9.5117L57.8632 10.5683ZM59.7186 8.76749C60.4647 8.31984 61.2571 8.1 62.1141 8.1V6.1C60.8911 6.1 59.7435 6.42016 58.6896 7.05251L59.7186 8.76749ZM62.1141 8.1C63.2376 8.1 63.8429 8.46913 64.1982 9.05712L65.91 8.02288C65.1053 6.69087 63.7506 6.1 62.1141 6.1V8.1ZM64.2112 9.07803C64.6662 9.79084 64.9541 10.9124 64.9541 12.56H66.9541C66.9541 10.7276 66.642 9.16916 65.897 8.00196L64.2112 9.07803ZM64.9541 12.56C64.9541 14.3065 64.6635 15.9589 64.086 17.5238L65.9623 18.2162C66.6247 16.4211 66.9541 14.5335 66.9541 12.56H64.9541ZM64.0824 17.5337C63.5364 19.0625 62.7013 20.2925 61.5833 21.2507L62.8849 22.7693C64.2869 21.5675 65.3118 20.0375 65.9658 18.2063L64.0824 17.5337ZM61.5843 21.2499C60.5466 22.1369 59.2553 22.6 57.6441 22.6V24.6C59.6729 24.6 61.4416 24.0031 62.8839 22.7701L61.5843 21.2499ZM57.6441 22.6C56.9178 22.6 56.1452 22.4567 55.3208 22.152L54.6275 24.028C55.643 24.4033 56.6504 24.6 57.6441 24.6V22.6ZM53.9931 22.896L52.9431 28.206L54.9051 28.594L55.9551 23.284L53.9931 22.896ZM53.8176 27.4057L50.4576 27.7657L50.6706 29.7543L54.0306 29.3943L53.8176 27.4057ZM51.5464 28.9475L55.5664 7.8875L53.6018 7.5125L49.5818 28.5725L51.5464 28.9475ZM54.7107 8.69195L57.5307 8.33195L57.2775 6.34805L54.4575 6.70805L54.7107 8.69195ZM56.4144 7.19704L56.0244 9.89704L58.0038 10.183L58.3938 7.48296L56.4144 7.19704ZM54.7839 21.6382C55.24 22.0183 55.7565 22.3065 56.3256 22.5045L56.9826 20.6155C56.6317 20.4935 56.3282 20.3217 56.0643 20.1018L54.7839 21.6382ZM56.3256 22.5045C56.8747 22.6955 57.426 22.8 57.9741 22.8V20.8C57.6822 20.8 57.3535 20.7445 56.9826 20.6155L56.3256 22.5045ZM57.9741 22.8C59.3781 22.8 60.5128 22.1739 61.2747 20.9917L59.5935 19.9083C59.1954 20.5261 58.6901 20.8 57.9741 20.8V22.8ZM61.2747 20.9917C61.9335 19.9694 62.4292 18.6954 62.7866 17.2029L60.8416 16.7371C60.519 18.0846 60.0947 19.1306 59.5935 19.9083L61.2747 20.9917ZM62.7828 17.2184C62.9942 16.3938 63.1612 15.5036 63.2857 14.5493L61.3025 14.2907C61.187 15.1764 61.034 15.9862 60.8454 16.7216L62.7828 17.2184ZM63.2827 14.5704C63.4272 13.6209 63.5041 12.7873 63.5041 12.08H61.5041C61.5041 12.6527 61.441 13.3791 61.3055 14.2696L63.2827 14.5704ZM63.5041 12.08C63.5041 11.1085 63.3328 10.1993 62.8328 9.51183L61.2154 10.6882C61.3554 10.8807 61.5041 11.2915 61.5041 12.08H63.5041ZM62.8617 9.55373C62.3263 8.73278 61.4571 8.41 60.5241 8.41V10.41C60.9911 10.41 61.1219 10.5472 61.1865 10.6463L62.8617 9.55373ZM60.5241 8.41C59.1922 8.41 58.0855 8.9919 57.2687 10.064L58.8595 11.276C59.3227 10.6681 59.856 10.41 60.5241 10.41V8.41ZM57.2758 10.0547C56.5222 11.0203 56.0273 12.1929 55.7629 13.537L57.7253 13.923C57.9409 12.8271 58.3261 11.9597 58.8524 11.2853L57.2758 10.0547ZM55.7608 13.5482L54.4408 20.6882L56.4074 21.0518L57.7274 13.9118L55.7608 13.5482ZM80.8416 3.47L81.4007 2.64093L81.4007 2.64093L80.8416 3.47ZM81.2916 8.42L81.9852 9.14032L81.9857 9.13984L81.2916 8.42ZM77.9616 8.81L77.0454 8.40918L76.7136 9.16775L77.3969 9.63531L77.9616 8.81ZM78.2916 7.7L77.3093 7.51289L77.3093 7.51289L78.2916 7.7ZM77.8416 5.06L77.1156 5.74774L77.1249 5.75755L77.1345 5.76711L77.8416 5.06ZM74.3316 5.3L73.6113 4.60636L73.6045 4.61341L73.5978 4.62059L74.3316 5.3ZM74.4216 9.68L73.6591 10.327L73.6697 10.3394L73.6806 10.3515L74.4216 9.68ZM76.9716 11.87L77.5655 11.0654L77.5623 11.0631L76.9716 11.87ZM79.0116 13.55L78.3185 14.2708L78.3258 14.2779L78.3333 14.2848L79.0116 13.55ZM80.3316 15.32L79.4423 15.7773L79.4502 15.7927L79.4587 15.8078L80.3316 15.32ZM79.8816 20.84L80.6795 21.4429L80.6858 21.4344L79.8816 20.84ZM77.1516 22.94L77.5455 23.8592L77.5533 23.8558L77.1516 22.94ZM69.5616 22.64L69.0288 23.4862L69.0288 23.4862L69.5616 22.64ZM68.7216 17.78L69.3842 18.529L69.3921 18.522L69.3999 18.5148L68.7216 17.78ZM72.1116 17.45L73.0278 17.8508L73.3677 17.0738L72.6566 16.6116L72.1116 17.45ZM71.7816 18.56L72.7639 18.7471L72.7639 18.7471L71.7816 18.56ZM72.3516 21.17L72.9679 20.3825L72.9679 20.3825L72.3516 21.17ZM76.4916 20.84L75.8315 20.0888L75.8315 20.0888L76.4916 20.84ZM77.0316 16.97L76.1591 17.4586L76.1664 17.4717L76.1741 17.4845L77.0316 16.97ZM75.9816 15.68L75.3107 16.4215L75.3206 16.4305L75.3308 16.4393L75.9816 15.68ZM74.2116 14.24L73.5976 15.0294L73.6049 15.035L74.2116 14.24ZM72.0816 12.5L71.4033 13.2348L71.4111 13.242L71.419 13.249L72.0816 12.5ZM70.7316 10.73L69.8423 11.1873L69.8474 11.1973L69.8527 11.2071L70.7316 10.73ZM71.1216 5.3L70.3129 4.71182L70.3104 4.7152L71.1216 5.3ZM73.7016 3.29L73.3158 2.3674L73.3097 2.36998L73.7016 3.29ZM77.3616 3.6C78.7005 3.6 79.6423 3.86736 80.2825 4.29907L81.4007 2.64093C80.3209 1.91264 78.9427 1.6 77.3616 1.6V3.6ZM80.2825 4.29907C80.8202 4.66174 81.1316 5.21199 81.1316 6.14H83.1316C83.1316 4.66801 82.583 3.43826 81.4007 2.64093L80.2825 4.29907ZM81.1316 6.14C81.1316 6.9232 80.9141 7.39486 80.5975 7.70015L81.9857 9.13984C82.7891 8.36514 83.1316 7.3168 83.1316 6.14H81.1316ZM80.598 7.69968C80.2358 8.04844 79.8513 8.2 79.4016 8.2V10.2C80.3919 10.2 81.2674 9.83156 81.9852 9.14032L80.598 7.69968ZM79.4016 8.2C78.9707 8.2 78.7014 8.1045 78.5263 7.98469L77.3969 9.63531C77.9818 10.0355 78.6725 10.2 79.4016 10.2V8.2ZM78.8778 9.21082C79.0535 8.80904 79.1829 8.3649 79.2739 7.88711L77.3093 7.51289C77.2403 7.8751 77.1497 8.17095 77.0454 8.40918L78.8778 9.21082ZM79.2739 7.88711C79.362 7.42458 79.4116 6.98966 79.4116 6.59H77.4116C77.4116 6.83033 77.3812 7.13542 77.3093 7.51289L79.2739 7.88711ZM79.4116 6.59C79.4116 5.73911 79.1515 4.95563 78.5487 4.35289L77.1345 5.76711C77.2918 5.92436 77.4116 6.16089 77.4116 6.59H79.4116ZM78.5676 4.37225C77.9721 3.74369 77.1701 3.49 76.3116 3.49V5.49C76.7731 5.49 76.9911 5.6163 77.1156 5.74774L78.5676 4.37225ZM76.3116 3.49C75.2602 3.49 74.3334 3.85642 73.6113 4.60636L75.0519 5.99364C75.3698 5.66358 75.763 5.49 76.3116 5.49V3.49ZM73.5978 4.62059C72.9066 5.36708 72.5816 6.29921 72.5816 7.34H74.5816C74.5816 6.74079 74.7566 6.31292 75.0654 5.97941L73.5978 4.62059ZM72.5816 7.34C72.5816 8.46672 72.9393 9.47859 73.6591 10.327L75.1841 9.03302C74.784 8.5614 74.5816 8.01328 74.5816 7.34H72.5816ZM73.6806 10.3515C74.3248 11.0624 75.2349 11.8379 76.3809 12.6769L77.5623 11.0631C76.4683 10.2621 75.6784 9.57764 75.1626 9.00848L73.6806 10.3515ZM76.3777 12.6746C77.1968 13.2791 77.8401 13.8109 78.3185 14.2708L79.7047 12.8292C79.1431 12.2891 78.4264 11.7009 77.5655 11.0654L76.3777 12.6746ZM78.3333 14.2848C78.7582 14.677 79.1299 15.1698 79.4423 15.7773L81.2209 14.8627C80.8133 14.0702 80.305 13.383 79.6899 12.8152L78.3333 14.2848ZM79.4587 15.8078C79.745 16.3202 79.9016 16.9283 79.9016 17.66H81.9016C81.9016 16.6317 81.6782 15.6798 81.2045 14.8322L79.4587 15.8078ZM79.9016 17.66C79.9016 18.6572 79.6238 19.5065 79.0774 20.2456L80.6858 21.4344C81.4995 20.3335 81.9016 19.0628 81.9016 17.66H79.9016ZM79.0837 20.2372C78.5173 20.9869 77.7499 21.5856 76.7499 22.0242L77.5533 23.8558C78.8333 23.2944 79.8859 22.4931 80.6795 21.4428L79.0837 20.2372ZM76.7577 22.0209C75.7703 22.444 74.6954 22.66 73.5216 22.66V24.66C74.9478 24.66 76.2929 24.396 77.5455 23.8591L76.7577 22.0209ZM73.5216 22.66C72.1081 22.66 70.9827 22.353 70.0944 21.7938L69.0288 23.4862C70.3005 24.287 71.8151 24.66 73.5216 24.66V22.66ZM70.0944 21.7938C69.2949 21.2903 68.9416 20.6444 68.9416 19.76H66.9416C66.9416 21.3556 67.6683 22.6297 69.0288 23.4862L70.0944 21.7938ZM68.9416 19.76C68.9416 19.1126 69.1285 18.7552 69.3842 18.529L68.059 17.031C67.2747 17.7248 66.9416 18.6874 66.9416 19.76H68.9416ZM69.3999 18.5148C69.7261 18.2137 70.1104 18.06 70.6116 18.06V16.06C69.6329 16.06 68.7571 16.3863 68.0433 17.0452L69.3999 18.5148ZM70.6116 18.06C71.0678 18.06 71.366 18.158 71.5666 18.2884L72.6566 16.6116C72.0572 16.222 71.3554 16.06 70.6116 16.06V18.06ZM71.1954 17.0492C71.0197 17.451 70.8903 17.8951 70.7993 18.3729L72.7639 18.7471C72.8329 18.3849 72.9235 18.089 73.0278 17.8508L71.1954 17.0492ZM70.7993 18.3729C70.712 18.8309 70.6616 19.257 70.6616 19.64H72.6616C72.6616 19.423 72.6912 19.1291 72.7639 18.7471L70.7993 18.3729ZM70.6616 19.64C70.6616 20.5621 70.9995 21.3816 71.7353 21.9575L72.9679 20.3825C72.7837 20.2384 72.6616 20.0379 72.6616 19.64H70.6616ZM71.7353 21.9575C72.409 22.4848 73.2315 22.71 74.1216 22.71V20.71C73.5717 20.71 73.2142 20.5752 72.9679 20.3825L71.7353 21.9575ZM74.1216 22.71C75.2721 22.71 76.3 22.3396 77.1517 21.5912L75.8315 20.0888C75.3632 20.5004 74.8111 20.71 74.1216 20.71V22.71ZM77.1517 21.5912C78.0391 20.8114 78.4816 19.7822 78.4816 18.59H76.4816C76.4816 19.2378 76.2641 19.7086 75.8315 20.0888L77.1517 21.5912ZM78.4816 18.59C78.4816 17.8277 78.2818 17.11 77.8891 16.4555L76.1741 17.4845C76.3814 17.83 76.4816 18.1923 76.4816 18.59H78.4816ZM77.9041 16.4814C77.5688 15.8826 77.1448 15.36 76.6324 14.9207L75.3308 16.4393C75.6584 16.72 75.9344 17.0574 76.1591 17.4586L77.9041 16.4814ZM76.6525 14.9385C76.2026 14.5314 75.5876 14.0322 74.8183 13.445L73.6049 15.035C74.3556 15.6078 74.9206 16.0686 75.3107 16.4215L76.6525 14.9385ZM74.8255 13.4506C73.9331 12.7565 73.2416 12.1911 72.7442 11.751L71.419 13.249C71.9616 13.7289 72.6901 14.3235 73.5977 15.0294L74.8255 13.4506ZM72.7599 11.7652C72.3298 11.3682 71.9447 10.8685 71.6105 10.2529L69.8527 11.2071C70.2785 11.9915 70.7934 12.6718 71.4033 13.2348L72.7599 11.7652ZM71.6209 10.2727C71.3435 9.73321 71.1916 9.09387 71.1916 8.33H69.1916C69.1916 9.36613 69.3997 10.3268 69.8423 11.1873L71.6209 10.2727ZM71.1916 8.33C71.1916 7.35913 71.4472 6.55839 71.9328 5.8848L70.3104 4.7152C69.556 5.76161 69.1916 6.98087 69.1916 8.33H71.1916ZM71.9303 5.88817C72.4556 5.16596 73.1663 4.60493 74.0935 4.21002L73.3097 2.36998C72.0769 2.89507 71.0676 3.67404 70.3129 4.71183L71.9303 5.88817ZM74.0874 4.21258C75.0509 3.80964 76.1377 3.6 77.3616 3.6V1.6C75.9055 1.6 74.5523 1.85035 73.3158 2.36742L74.0874 4.21258ZM91.4281 7.7L90.4479 7.50198L90.2059 8.7H91.4281V7.7ZM93.7681 7.7L94.7487 7.89611L94.9879 6.7H93.7681V7.7ZM93.4981 9.05V10.05H94.3179L94.4787 9.24612L93.4981 9.05ZM91.1281 9.05V8.05H90.3078L90.1474 8.85441L91.1281 9.05ZM88.9681 19.88L87.9873 19.6844L87.9848 19.6979L88.9681 19.88ZM89.7181 22.19L90.6857 22.4424L90.9808 21.3113L89.8176 21.195L89.7181 22.19ZM88.9081 23.24L88.4119 22.3718L88.4119 22.3718L88.9081 23.24ZM85.9981 23.06L85.2711 23.7466L85.2809 23.757L85.291 23.7671L85.9981 23.06ZM86.6581 14.78L87.6354 14.9918L87.6371 14.984L86.6581 14.78ZM86.9581 13.34L87.9371 13.544L87.9395 13.5322L86.9581 13.34ZM87.7981 9.05L88.7795 9.24215L89.0129 8.05H87.7981V9.05ZM85.6681 9.05L84.6769 8.91784L84.5259 10.05H85.6681V9.05ZM85.7881 8.15L85.4433 7.21133L84.8766 7.41948L84.7969 8.01784L85.7881 8.15ZM88.6381 6.71L88.0918 5.87239L88.0918 5.87239L88.6381 6.71ZM91.0681 4.73V3.73H90.6456L90.3511 4.03292L91.0681 4.73ZM92.0281 4.73L93.0083 4.92802L93.2503 3.73H92.0281V4.73ZM91.4281 8.7H93.7681V6.7H91.4281V8.7ZM92.7875 7.50388L92.5175 8.85388L94.4787 9.24612L94.7487 7.89611L92.7875 7.50388ZM93.4981 8.05H91.1281V10.05H93.4981V8.05ZM90.1474 8.85441L87.9874 19.6844L89.9488 20.0756L92.1088 9.24559L90.1474 8.85441ZM87.9848 19.6979C87.8812 20.2573 87.8181 20.7482 87.8181 21.14H89.8181C89.8181 20.9318 89.855 20.5827 89.9514 20.0621L87.9848 19.6979ZM87.8181 21.14C87.8181 21.6064 87.9274 22.1175 88.2838 22.5333C88.6479 22.958 89.144 23.1376 89.6186 23.185L89.8176 21.195C89.7535 21.1886 89.7326 21.1777 89.7389 21.1806C89.7425 21.1822 89.7519 21.187 89.7645 21.1963C89.7773 21.2058 89.7904 21.2177 89.8023 21.2317C89.8143 21.2456 89.8223 21.2583 89.8273 21.2676C89.8321 21.2766 89.8327 21.2802 89.8314 21.2756C89.8282 21.2651 89.8181 21.2241 89.8181 21.14H87.8181ZM88.7505 21.9376C88.6997 22.1321 88.603 22.2626 88.4119 22.3718L89.4042 24.1082C90.0532 23.7374 90.4965 23.1679 90.6857 22.4424L88.7505 21.9376ZM88.4119 22.3718C88.1543 22.519 87.8575 22.6 87.4981 22.6V24.6C88.1786 24.6 88.8218 24.441 89.4042 24.1082L88.4119 22.3718ZM87.4981 22.6C87.0514 22.6 86.8323 22.48 86.7052 22.3529L85.291 23.7671C85.8839 24.36 86.6648 24.6 87.4981 24.6V22.6ZM86.7251 22.3734C86.6122 22.2539 86.4881 22.0217 86.4881 21.53H84.4881C84.4881 22.3583 84.7039 23.1461 85.2711 23.7466L86.7251 22.3734ZM86.4881 21.53C86.4881 21.1764 86.5703 20.4668 86.7659 19.3383C86.9575 18.2327 87.2468 16.7853 87.6354 14.9918L85.6808 14.5682C85.2894 16.3747 84.9936 17.8523 84.7953 18.9967C84.6009 20.1182 84.4881 20.9836 84.4881 21.53H86.4881ZM87.6371 14.984L87.9371 13.544L85.9791 13.136L85.6791 14.576L87.6371 14.984ZM87.9395 13.5322L88.7795 9.24215L86.8167 8.85784L85.9767 13.1478L87.9395 13.5322ZM87.7981 8.05H85.6681V10.05H87.7981V8.05ZM86.6593 9.18216L86.7793 8.28216L84.7969 8.01784L84.6769 8.91784L86.6593 9.18216ZM86.1329 9.08867C87.1872 8.70137 88.2045 8.18664 89.1844 7.54761L88.0918 5.87239C87.2317 6.43335 86.3489 6.87863 85.4433 7.21133L86.1329 9.08867ZM89.1844 7.54761C90.1606 6.91095 91.029 6.20477 91.7851 5.42708L90.3511 4.03292C89.7072 4.69522 88.9556 5.30904 88.0918 5.87239L89.1844 7.54761ZM91.0681 5.73H92.0281V3.73H91.0681V5.73ZM91.0479 4.53198L90.4479 7.50198L92.4083 7.89802L93.0083 4.92802L91.0479 4.53198ZM106.303 19.88L105.321 19.692L105.319 19.7038L105.317 19.7156L106.303 19.88ZM107.053 22.19L108.021 22.4424L108.316 21.3113L107.152 21.195L107.053 22.19ZM106.243 23.24L105.747 22.3718L105.738 22.377L105.728 22.3825L106.243 23.24ZM103.453 23.15L102.813 23.9182L102.823 23.9267L102.833 23.9349L103.453 23.15ZM102.823 21.89L103.817 21.7796L103.521 19.1165L102 21.3223L102.823 21.89ZM101.113 23.18L100.759 22.2447L101.113 23.18ZM95.3829 22.19L94.5669 22.768L94.5738 22.7777L94.5809 22.7873L95.3829 22.19ZM95.2629 12.8L96.2034 13.1399L95.2629 12.8ZM98.0229 8.72L98.6727 9.48012L98.6737 9.47926L98.0229 8.72ZM104.143 7.25L103.921 8.22518L103.931 8.22718L104.143 7.25ZM105.703 7.73L105.348 8.665L105.583 8.75401L105.832 8.72166L105.703 7.73ZM108.703 7.34L109.685 7.52798L109.945 6.17012L108.574 6.34834L108.703 7.34ZM104.893 9.83L105.876 10.0118L105.983 9.43639L105.533 9.06178L104.893 9.83ZM103.633 9.14L103.304 10.0846L103.317 10.0887L103.633 9.14ZM99.8829 10.25L100.724 10.7917L100.724 10.7917L99.8829 10.25ZM98.5029 13.73L99.4716 13.9784L99.4736 13.9706L99.4754 13.9629L98.5029 13.73ZM97.9929 16.31L97.0038 16.1627L97.0025 16.1717L97.0013 16.1807L97.9929 16.31ZM98.3229 20.96L97.4602 21.4657L97.4641 21.4724L97.4681 21.479L98.3229 20.96ZM102.343 20.39L103.194 20.9151L103.199 20.9071L102.343 20.39ZM103.573 16.97L102.59 16.7882L102.589 16.7911L103.573 16.97ZM105.317 19.7156C105.217 20.3123 105.153 20.8073 105.153 21.14H107.153C107.153 20.9927 107.189 20.6477 107.289 20.0444L105.317 19.7156ZM105.153 21.14C105.153 21.6064 105.262 22.1175 105.619 22.5333C105.983 22.958 106.479 23.1376 106.953 23.185L107.152 21.195C107.088 21.1886 107.067 21.1777 107.074 21.1806C107.077 21.1822 107.087 21.187 107.099 21.1963C107.112 21.2058 107.125 21.2177 107.137 21.2317C107.149 21.2456 107.157 21.2583 107.162 21.2676C107.167 21.2766 107.168 21.2802 107.166 21.2756C107.163 21.2651 107.153 21.2241 107.153 21.14H105.153ZM106.085 21.9376C106.035 22.1321 105.938 22.2626 105.747 22.3718L106.739 24.1082C107.388 23.7374 107.831 23.1679 108.021 22.4424L106.085 21.9376ZM105.728 22.3825C105.501 22.5189 105.223 22.6 104.863 22.6V24.6C105.543 24.6 106.185 24.4411 106.757 24.0975L105.728 22.3825ZM104.863 22.6C104.491 22.6 104.249 22.5045 104.073 22.3651L102.833 23.9349C103.417 24.3955 104.115 24.6 104.863 24.6V22.6ZM104.093 22.3818C103.963 22.2735 103.853 22.1069 103.817 21.7796L101.829 22.0004C101.913 22.7531 102.223 23.4265 102.813 23.9182L104.093 22.3818ZM102 21.3223C101.729 21.7147 101.333 22.0275 100.759 22.2447L101.467 24.1153C102.373 23.7725 103.117 23.2253 103.646 22.4577L102 21.3223ZM100.759 22.2447C100.139 22.4793 99.4696 22.6 98.7429 22.6V24.6C99.6963 24.6 100.607 24.4407 101.467 24.1153L100.759 22.2447ZM98.7429 22.6C97.4106 22.6 96.6398 22.2035 96.185 21.5927L94.5809 22.7873C95.5261 24.0565 96.9953 24.6 98.7429 24.6V22.6ZM96.199 21.612C95.6889 20.892 95.3629 19.7314 95.3629 17.99H93.3629C93.3629 19.9286 93.7169 21.568 94.5669 22.768L96.199 21.612ZM95.3629 17.99C95.3629 16.3036 95.6436 14.6888 96.2034 13.1399L94.3225 12.4601C93.6823 14.2312 93.3629 16.0764 93.3629 17.99H95.3629ZM96.2034 13.1399C96.7495 11.629 97.5751 10.4184 98.6727 9.48012L97.3732 7.95988C95.9908 9.14155 94.9764 10.651 94.3225 12.4601L96.2034 13.1399ZM98.6737 9.47926C99.7324 8.5718 101.044 8.1 102.673 8.1V6.1C100.622 6.1 98.8334 6.7082 97.3721 7.96074L98.6737 9.47926ZM102.673 8.1C103.152 8.1 103.567 8.14451 103.921 8.22513L104.365 6.27487C103.839 6.15549 103.273 6.1 102.673 6.1V8.1ZM103.931 8.22718C104.33 8.31396 104.801 8.45739 105.348 8.665L106.058 6.795C105.445 6.56261 104.876 6.38604 104.355 6.27282L103.931 8.22718ZM105.832 8.72166L108.832 8.33166L108.574 6.34834L105.574 6.73834L105.832 8.72166ZM107.721 7.15202L105.321 19.692L107.285 20.068L109.685 7.52798L107.721 7.15202ZM105.533 9.06178C105.07 8.67579 104.538 8.38758 103.949 8.19132L103.317 10.0887C103.688 10.2124 103.996 10.3842 104.253 10.5982L105.533 9.06178ZM103.961 8.1955C103.412 8.00451 102.861 7.9 102.313 7.9V9.9C102.605 9.9 102.934 9.95549 103.304 10.0845L103.961 8.1955ZM102.313 7.9C100.921 7.9 99.7999 8.53281 99.0424 9.7083L100.724 10.7917C101.126 10.1672 101.625 9.9 102.313 9.9V7.9ZM99.0424 9.7083C98.3836 10.7306 97.8878 12.0046 97.5304 13.4971L99.4754 13.9629C99.7981 12.6154 100.222 11.5694 100.724 10.7917L99.0424 9.7083ZM97.5343 13.4816C97.3244 14.3002 97.148 15.1945 97.0038 16.1627L98.982 16.4573C99.1178 15.5455 99.2815 14.7198 99.4716 13.9784L97.5343 13.4816ZM97.0013 16.1807C96.878 17.1263 96.8129 17.9523 96.8129 18.65H98.8129C98.8129 18.0677 98.8679 17.3337 98.9845 16.4393L97.0013 16.1807ZM96.8129 18.65C96.8129 19.7159 96.9999 20.6804 97.4602 21.4657L99.1856 20.4543C98.966 20.0796 98.8129 19.5041 98.8129 18.65H96.8129ZM97.4681 21.479C98.0158 22.381 98.9075 22.8 99.9429 22.8V20.8C99.4984 20.8 99.3101 20.659 99.1777 20.441L97.4681 21.479ZM99.9429 22.8C101.343 22.8 102.45 22.1209 103.194 20.9151L101.492 19.8649C101.076 20.5391 100.583 20.8 99.9429 20.8V22.8ZM103.199 20.9071C103.853 19.8249 104.299 18.5656 104.557 17.1489L102.589 16.7911C102.367 18.0144 101.993 19.0351 101.487 19.8729L103.199 20.9071ZM104.556 17.1518L105.876 10.0118L103.91 9.64821L102.59 16.7882L104.556 17.1518ZM122.632 7.91L122.053 8.72524L122.063 8.73219L122.632 7.91ZM123.052 12.2L123.728 12.9372L123.729 12.9359L123.052 12.2ZM120.052 12.44L119.123 12.0686L118.888 12.6565L119.319 13.1205L120.052 12.44ZM120.352 11.42L121.33 11.626L121.332 11.6161L120.352 11.42ZM120.112 9.29L119.353 9.94079L119.365 9.95476L119.377 9.96828L120.112 9.29ZM116.662 10.34L117.478 10.918L117.483 10.9101L116.662 10.34ZM115.102 13.85L114.134 13.5976L114.132 13.6075L115.102 13.85ZM119.572 20.33L120.202 21.1061L120.21 21.1003L120.217 21.0943L119.572 20.33ZM120.982 18.23L121.264 17.2706L120.351 17.0021L120.038 17.9006L120.982 18.23ZM121.252 21.68L120.494 21.0271L120.488 21.0347L120.481 21.0424L121.252 21.68ZM119.212 23.06L118.851 22.1272L118.839 22.1322L118.826 22.1376L119.212 23.06ZM112.102 12.56L111.176 12.1827L111.172 12.1926L112.102 12.56ZM114.982 8.63L115.603 9.41329L115.605 9.41206L114.982 8.63ZM119.572 8.1C120.72 8.1 121.514 8.34282 122.053 8.72518L123.211 7.09482C122.229 6.39718 120.984 6.1 119.572 6.1V8.1ZM122.063 8.73219C122.55 9.06944 122.802 9.52906 122.802 10.25H124.802C124.802 8.93094 124.274 7.83056 123.201 7.08781L122.063 8.73219ZM122.802 10.25C122.802 10.8813 122.622 11.2367 122.375 11.4641L123.729 12.9359C124.482 12.2433 124.802 11.2987 124.802 10.25H122.802ZM122.376 11.4628C122.089 11.7257 121.754 11.86 121.312 11.86V13.86C122.23 13.86 123.054 13.5543 123.728 12.9372L122.376 11.4628ZM121.312 11.86C121.098 11.86 120.96 11.8336 120.878 11.8063C120.839 11.7932 120.815 11.7808 120.802 11.773C120.79 11.7655 120.786 11.7608 120.785 11.7595L119.319 13.1205C119.848 13.6897 120.597 13.86 121.312 13.86V11.86ZM120.98 12.8114C121.126 12.4484 121.241 12.0516 121.33 11.626L119.373 11.214C119.303 11.5484 119.218 11.8316 119.123 12.0686L120.98 12.8114ZM121.332 11.6161C121.42 11.178 121.472 10.7682 121.472 10.4H119.472C119.472 10.5918 119.444 10.862 119.371 11.2239L121.332 11.6161ZM121.472 10.4C121.472 9.75954 121.31 9.11387 120.847 8.61172L119.377 9.96828C119.394 9.98613 119.472 10.0805 119.472 10.4H121.472ZM120.871 8.63921C120.387 8.07492 119.71 7.87 119.032 7.87V9.87C119.177 9.87 119.259 9.89138 119.299 9.907C119.334 9.92028 119.345 9.93174 119.353 9.94079L120.871 8.63921ZM119.032 7.87C117.702 7.87 116.64 8.61721 115.84 9.76992L117.483 10.9101C118.044 10.1028 118.562 9.87 119.032 9.87V7.87ZM115.846 9.76198C115.083 10.8389 114.518 12.1249 114.134 13.5976L116.069 14.1024C116.405 12.8151 116.881 11.7611 117.478 10.918L115.846 9.76198ZM114.132 13.6075C113.777 15.0263 113.592 16.3395 113.592 17.54H115.592C115.592 16.5405 115.747 15.3937 116.072 14.0925L114.132 13.6075ZM113.592 17.54C113.592 18.8292 113.833 19.9794 114.48 20.8249C115.165 21.7212 116.175 22.11 117.322 22.11V20.11C116.649 20.11 116.293 19.9038 116.069 19.61C115.805 19.2656 115.592 18.6308 115.592 17.54H113.592ZM117.322 22.11C118.401 22.11 119.376 21.7775 120.202 21.1061L118.941 19.5539C118.488 19.9225 117.963 20.11 117.322 20.11V22.11ZM120.217 21.0943C121.006 20.4287 121.572 19.5732 121.926 18.5594L120.038 17.9006C119.791 18.6068 119.418 19.1513 118.927 19.5657L120.217 21.0943ZM120.7 19.1894C120.852 19.2341 120.895 19.2874 120.915 19.3172C120.944 19.3609 121.002 19.4821 121.002 19.76H123.002C123.002 19.2179 122.89 18.6741 122.579 18.2078C122.259 17.7276 121.792 17.4259 121.264 17.2706L120.7 19.1894ZM121.002 19.76C121.002 20.1971 120.854 20.6102 120.494 21.0271L122.009 22.3329C122.65 21.5898 123.002 20.7229 123.002 19.76H121.002ZM120.481 21.0424C120.135 21.4612 119.612 21.8335 118.851 22.1272L119.572 23.9928C120.572 23.6065 121.409 23.0588 122.022 22.3176L120.481 21.0424ZM118.826 22.1376C118.104 22.4398 117.277 22.6 116.332 22.6V24.6C117.506 24.6 118.6 24.4002 119.598 23.9824L118.826 22.1376ZM116.332 22.6C114.794 22.6 113.812 22.1661 113.192 21.457C112.55 20.7221 112.142 19.5165 112.142 17.66H110.142C110.142 19.7635 110.598 21.5279 111.686 22.773C112.797 24.0439 114.41 24.6 116.332 24.6V22.6ZM112.142 17.66C112.142 16.003 112.439 14.4279 113.032 12.9274L111.172 12.1926C110.485 13.9321 110.142 15.757 110.142 17.66H112.142ZM113.028 12.9373C113.629 11.4622 114.49 10.2972 115.603 9.41329L114.36 7.84671C112.954 8.96283 111.895 10.4178 111.176 12.1827L113.028 12.9373ZM115.605 9.41206C116.692 8.5458 117.997 8.1 119.572 8.1V6.1C117.587 6.1 115.832 6.6742 114.359 7.84794L115.605 9.41206ZM131.435 5.03L130.454 4.83889L130.452 4.84709L131.435 5.03ZM130.865 7.64L131.834 7.88784L131.836 7.88253L130.865 7.64ZM130.235 9.71L129.302 9.35102L131.091 10.2274L130.235 9.71ZM132.275 7.76L132.739 8.64583L132.739 8.64583L132.275 7.76ZM137.615 8.03L136.897 8.72542L136.897 8.72542L137.615 8.03ZM137.105 14.09L137.797 14.8124L137.805 14.8047L137.105 14.09ZM133.505 16.22L133.17 15.278L132.202 15.6226L132.573 16.5806L133.505 16.22ZM134.885 19.79L135.82 19.4353L135.818 19.4294L134.885 19.79ZM135.785 21.26L135.06 21.9487L135.06 21.9487L135.785 21.26ZM137.165 21.95L138.153 22.108L138.319 21.072L137.276 20.9561L137.165 21.95ZM133.085 22.82L132.365 23.5136L132.378 23.5272L132.392 23.5403L133.085 22.82ZM131.675 20.42L130.743 20.7825L130.746 20.7884L131.675 20.42ZM130.175 15.77L129.939 14.7982L128.927 15.0442L129.214 16.046L130.175 15.77ZM133.715 14.12L133.103 13.3297L133.095 13.336L133.715 14.12ZM134.705 9.89L133.998 10.5971L133.998 10.5971L134.705 9.89ZM130.865 10.85L130.002 10.3461L130.002 10.3461L130.865 10.85ZM129.545 14.66L128.565 14.4615L128.564 14.4693L129.545 14.66ZM127.925 23L128.031 23.9944L128.766 23.9163L128.907 23.1907L127.925 23ZM124.535 23.36L123.554 23.1684L123.295 24.4974L124.641 24.3544L124.535 23.36ZM128.705 2L128.6 1.00559L127.865 1.08358L127.724 1.80839L128.705 2ZM132.095 1.64L133.077 1.8311L133.336 0.502674L131.99 0.645591L132.095 1.64ZM130.452 4.84709C130.296 5.68637 130.111 6.53648 129.895 7.39746L131.836 7.88253C132.06 6.98352 132.255 6.09363 132.419 5.21291L130.452 4.84709ZM129.897 7.39217C129.681 8.23373 129.482 8.8821 129.302 9.35102L131.169 10.069C131.388 9.49789 131.61 8.76626 131.834 7.88783L129.897 7.39217ZM131.091 10.2274C131.523 9.51394 132.071 8.99597 132.739 8.64583L131.811 6.87417C130.8 7.40403 129.988 8.18606 129.38 9.19258L131.091 10.2274ZM132.739 8.64583C133.434 8.28179 134.175 8.1 134.975 8.1V6.1C133.856 6.1 132.796 6.35821 131.811 6.87417L132.739 8.64583ZM134.975 8.1C135.961 8.1 136.543 8.36003 136.897 8.72542L138.334 7.33458C137.488 6.45997 136.31 6.1 134.975 6.1V8.1ZM136.897 8.72542C137.274 9.11481 137.515 9.6909 137.515 10.58H139.515C139.515 9.3091 139.157 8.18519 138.334 7.33458L136.897 8.72542ZM137.515 10.58C137.515 11.7548 137.137 12.6594 136.406 13.3753L137.805 14.8047C138.953 13.6806 139.515 12.2452 139.515 10.58H137.515ZM136.414 13.3677C135.593 14.1534 134.522 14.7964 133.17 15.278L133.841 17.162C135.409 16.6036 136.738 15.8266 137.797 14.8123L136.414 13.3677ZM132.573 16.5806L133.953 20.1506L135.818 19.4294L134.438 15.8594L132.573 16.5806ZM133.95 20.1447C134.212 20.8334 134.578 21.4412 135.06 21.9487L136.51 20.5713C136.233 20.2788 135.999 19.9066 135.82 19.4353L133.95 20.1447ZM135.06 21.9487C135.6 22.5169 136.277 22.8574 137.055 22.9439L137.276 20.9561C136.974 20.9226 136.731 20.8031 136.51 20.5713L135.06 21.9487ZM136.178 21.792C136.133 22.0741 136.024 22.2495 135.865 22.3818L137.146 23.9182C137.707 23.4505 138.038 22.8259 138.153 22.108L136.178 21.792ZM135.865 22.3818C135.73 22.4941 135.498 22.6 135.065 22.6V24.6C135.832 24.6 136.56 24.4059 137.146 23.9182L135.865 22.3818ZM135.065 22.6C134.533 22.6 134.125 22.4324 133.779 22.0997L132.392 23.5403C133.126 24.2476 134.038 24.6 135.065 24.6V22.6ZM133.806 22.1264C133.41 21.7159 133 21.0474 132.605 20.0516L130.746 20.7884C131.191 21.9126 131.72 22.8441 132.365 23.5136L133.806 22.1264ZM132.607 20.0576C132.204 19.02 131.714 17.5042 131.137 15.494L129.214 16.046C129.797 18.0758 130.307 19.66 130.743 20.7824L132.607 20.0576ZM130.411 16.7418C131.927 16.3736 133.245 15.7681 134.336 14.904L133.095 13.336C132.266 13.9919 131.224 14.4864 129.939 14.7982L130.411 16.7418ZM134.328 14.9102C135.522 13.9841 136.185 12.7652 136.185 11.3H134.185C134.185 12.0748 133.868 12.7359 133.103 13.3298L134.328 14.9102ZM136.185 11.3C136.185 10.5152 135.981 9.75115 135.413 9.18289L133.998 10.5971C134.07 10.6688 134.185 10.8448 134.185 11.3H136.185ZM135.413 9.18289C134.85 8.62038 134.101 8.41 133.325 8.41V10.41C133.75 10.41 133.921 10.5196 133.998 10.5971L135.413 9.18289ZM133.325 8.41C131.877 8.41 130.734 9.08992 130.002 10.3461L131.729 11.3539C132.116 10.6901 132.614 10.41 133.325 10.41V8.41ZM130.002 10.3461C129.368 11.4331 128.898 12.818 128.565 14.4615L130.526 14.8585C130.833 13.342 131.243 12.1869 131.729 11.3539L130.002 10.3461ZM128.564 14.4693L126.944 22.8093L128.907 23.1907L130.527 14.8507L128.564 14.4693ZM127.82 22.0056L124.43 22.3656L124.641 24.3544L128.031 23.9944L127.82 22.0056ZM125.517 23.5516L129.687 2.19161L127.724 1.80839L123.554 23.1684L125.517 23.5516ZM128.811 2.99441L132.201 2.63441L131.99 0.645591L128.6 1.00559L128.811 2.99441ZM131.114 1.4489L130.454 4.8389L132.417 5.2211L133.077 1.8311L131.114 1.4489Z" fill="black"/>
</svg>
